# xmcd
#
# Track frame offsets: 
#        150
#        12497
#        25960
#        39125
#        49592
#        64180
#        86697
#        97157
#        112327
#        132987
#        146277
#        162165
#        176835
#
# Disc length: 2537 seconds
#
# Revision: 0
# Processed by: cddbd v1.4PL0 Copyright (c) Steve Scherf et al.
# Submitted via: ExactAudioCopy v0.90b4
#
DISCID=b209e70d
DTITLE=Mike's Blue Groove - Sit Down Baby
DYEAR=2003
DGENRE=Blues
TTITLE0=She's My Baby
TTITLE1=Take It Easy Baby
TTITLE2=Boogie Woogie Country Girl
TTITLE3=Sit Down Baby
TTITLE4=No 9 Train
TTITLE5=Love, Life An Money
TTITLE6=Take Me Where You Go
TTITLE7=I Wish You Would
TTITLE8=Give Me Mine Now
TTITLE9=Stompin' And Rollin'
TTITLE10=Drink My Liquor
TTITLE11=I've Been Dogged By Women
TTITLE12=Have You Seen My Girl
EXTD=
EXTT0=
EXTT1=
EXTT2=
EXTT3=
EXTT4=
EXTT5=
EXTT6=
EXTT7=
EXTT8=
EXTT9=
EXTT10=
EXTT11=
EXTT12=
PLAYORDER=
